<svg id="Layer_2" data-name="Layer 2" xmlns="http://www.w3.org/2000/svg" viewBox="0 0 1514 1588"><defs><style>.cls-1,.cls-2{fill:none;stroke-miterlimit:10;stroke-width:10px;stroke-dasharray:22;}.cls-1{stroke:#e5cd9f;}.cls-2{stroke:#efc0ae;}</style></defs><title>crazy-lines</title><path class="cls-1" d="M522.19,381.48a1309.43,1309.43,0,0,0-.78,201.83c5.54,74.26,14,99.39,0,139-20.26,57.31-80.66,125.24-159.14,123.43-64-1.48-114.49-48.72-138.18-92.38-40.48-74.59-14-159.58,14-249.18C286.16,350,353.22,302.22,325,230.88c-14.4-36.43-47.14-62.55-38-103.24,1.19-5.34,8.72-36,36.49-46.58,22.81-8.67,50.87-.55,64.43,17.85,20.67,28,2.6,73-24.06,90.82-36.61,24.44-90.93-1.4-117.22-32.6-11.6-13.77-6.43-17.84-23.29-50.46C206.61,74.32,195.44,52.71,173,36c-3.5-2.61-53.92-39-104-18C47,27.21,34.83,43.4,30,50,2.81,87.14,10.57,130.08,12,138c0.68,3.77,13.54,69.48,65,88,51.07,18.38,110.25-20.51,139-56,32.25-39.81,21.28-69.26,62-104,11.45-9.77,34.28-28.69,68-30,3.42-.13,48.08-1.17,77,32,33.43,38.34,24.66,98.12,1,134-35.8,54.28-115,67.91-163,48-22.08-9.15-28.54-21.63-51-23-39.17-2.39-70.67,32.46-82,45-3,3.34-68.44,78-46,164,25.92,99.38,152.65,150.77,237,135,29.75-5.56,67.83-25,144-64,20.56-10.52,45.81-24.08,84-39,40.62-15.87,60.92-23.81,85-25,12.13-.6,92.83-4.6,120,50,18.88,37.94,3.72,87.72-26,115-48,44.09-138,32.93-171-21-21-34.31-14.11-78.15,3-108,22.64-39.5,65.27-58.05,101-58,40.71,0.06,68.76,24.25,109,60C889.41,588.87,950.11,642.81,952,657c12.38,93.08-128.58,124.62-224,338-25.65,57.36-36.49,102.09-41,123-21,97.14-13.31,180.47-4,234v227"/><path class="cls-2" d="M987.87,381.48a1309.43,1309.43,0,0,1,.78,201.83c-5.54,74.26-14,99.39,0,139,20.26,57.31,80.66,125.24,159.14,123.43,64-1.48,114.49-48.72,138.18-92.38,40.48-74.59,14-159.58-14-249.18C1223.91,350,1156.85,302.22,1185,230.88c14.4-36.43,47.14-62.55,38-103.24-1.19-5.34-8.72-36-36.49-46.58-22.81-8.67-50.87-.55-64.43,17.85-20.67,28-2.6,73,24.06,90.82,36.61,24.44,90.93-1.4,117.22-32.6,11.6-13.77,6.43-17.84,23.29-50.46,16.72-32.35,27.89-54,50.33-70.67,3.5-2.61,53.92-39,104-18,22,9.21,34.17,25.4,39,32,27.19,37.14,19.43,80.08,18,88-0.68,3.77-13.54,69.48-65,88-51.07,18.38-110.25-20.51-139-56-32.25-39.81-21.28-69.26-62-104-11.45-9.77-34.28-28.69-68-30-3.42-.13-48.08-1.17-77,32-33.43,38.34-24.66,98.12-1,134,35.8,54.28,115,67.91,163,48,22.08-9.15,28.54-21.63,51-23,39.17-2.39,70.67,32.46,82,45,3,3.34,68.44,78,46,164-25.92,99.38-152.65,150.77-237,135-29.75-5.56-67.83-25-144-64-20.56-10.52-45.81-24.08-84-39-40.62-15.87-60.92-23.81-85-25-12.13-.6-92.83-4.6-120,50-18.88,37.94-3.72,87.72,26,115,48,44.09,138,32.93,171-21,21-34.31,14.11-78.15-3-108-22.64-39.5-65.27-58.05-101-58-40.71.06-68.76,24.25-109,60C620.66,588.87,560,642.81,558.07,657c-12.38,93.08,128.58,124.62,224,338,25.65,57.36,36.49,102.09,41,123,21,97.14,13.31,180.47,4,234v227"/></svg>